<svg width="30" height="30" viewBox="0 0 30 30" fill="none" xmlns="http://www.w3.org/2000/svg">
<path d="M23.7556 6.13281C21.4174 3.78906 18.3036 2.5 14.9944 2.5C8.16406 2.5 2.60603 8.05804 2.60603 14.8884C2.60603 17.0703 3.17522 19.202 4.25781 21.0826L2.5 27.5L9.06808 25.7757C10.8761 26.7634 12.9129 27.2824 14.9888 27.2824H14.9944C21.8192 27.2824 27.5 21.7243 27.5 14.894C27.5 11.5848 26.0937 8.47656 23.7556 6.13281V6.13281ZM14.9944 25.1953C13.1417 25.1953 11.3281 24.6987 9.74888 23.7612L9.375 23.5379L5.47991 24.5592L6.51786 20.7589L6.27232 20.3683C5.23996 18.7277 4.69866 16.8359 4.69866 14.8884C4.69866 9.21317 9.3192 4.59263 15 4.59263C17.7511 4.59263 20.3348 5.66406 22.2768 7.61161C24.2187 9.55915 25.4129 12.1429 25.4074 14.894C25.4074 20.5748 20.6696 25.1953 14.9944 25.1953V25.1953ZM20.6417 17.4833C20.3348 17.327 18.8114 16.5792 18.5268 16.4788C18.2422 16.3728 18.0357 16.3225 17.8292 16.635C17.6228 16.9475 17.0313 17.6395 16.8471 17.8516C16.6685 18.058 16.4844 18.0859 16.1775 17.9297C14.3583 17.0201 13.1641 16.3058 11.9643 14.2467C11.6462 13.6998 12.2824 13.7388 12.8739 12.5558C12.9743 12.3493 12.9241 12.1708 12.846 12.0145C12.7679 11.8583 12.1484 10.3348 11.8917 9.7154C11.6406 9.11272 11.3839 9.19643 11.1942 9.18527C11.0156 9.17411 10.8092 9.17411 10.6027 9.17411C10.3962 9.17411 10.0614 9.25223 9.77679 9.55915C9.49219 9.87165 8.6942 10.6194 8.6942 12.1429C8.6942 13.6663 9.80469 15.1395 9.95536 15.346C10.1116 15.5525 12.1373 18.6775 15.2455 20.0223C17.2098 20.8705 17.9799 20.9431 18.9621 20.798C19.5592 20.7087 20.7924 20.0502 21.0491 19.3248C21.3058 18.5993 21.3058 17.9799 21.2277 17.8516C21.1551 17.7121 20.9487 17.6339 20.6417 17.4833Z" fill="white"/>
</svg>
